# xmcd
#
# Track frame offsets:
#	150
#	12061
#	26257
#	39705
#	53457
#	66950
#	84545
#	96035
#	108440
#	119495
#	132575
#	144729
#
# Disc length: 2070 seconds
#
# Revision: 1
# Processed by: cddbd v1.5.2PL0 Copyright (c) Steve Scherf et al.
# Submitted via: audiograbber 1.83.01
#
DISCID=9e08140c
DTITLE=Concurso de marchinhas - As melhores marchinhas do carnaval 2009
DYEAR=2009
DGENRE=Marchinhas
TTITLE0=Soraya Ravenle - Mamãe eu quero
TTITLE1=Edu Krieger - Bendita Baderna
TTITLE2=Eduardo Dussek - Todo Mundo Nu (Marchinha Raspadinha)
TTITLE3=Cesar Belieny - O Collor fez o Lula e o Bush fez Obama
TTITLE4=Moyséis Marques - Paixão de Praia
TTITLE5=Jorge Poeta - A mãe do Paulo
TTITLE6=Vera Holanda - Velhinha animada
TTITLE7=Bianca Leão e Jean Philippe Beyssac - Cantando na Folia
TTITLE8=Siba - Canoa Furada
TTITLE9=Alfredo Del Penho, Clarice Magalhães, Lali Maia e Pedro Paulo Malta - A
TTITLE9=marcha do fim do mundo
TTITLE10=Alfredo Del Penho, Clarice Magalhães, Lali Maia e Pedro Paulo Malta - 
TTITLE10=Fui eu!
TTITLE11=Soraya Ravenle - Ta-Hi (Pra você gostar de mim)
EXTD=
EXTT0=
EXTT1=
EXTT2=
EXTT3=
EXTT4=
EXTT5=
EXTT6=
EXTT7=
EXTT8=
EXTT9=
EXTT10=
EXTT11=
PLAYORDER=
